<svg id="visual" viewBox="0 0 900 600" width="900" height="600" xmlns="http://www.w3.org/2000/svg" xmlns:xlink="http://www.w3.org/1999/xlink" version="1.1"><g transform="translate(449.69177816180644 313.63193221292295)" opacity="0.7"><path d="M60.7 -180.3C90.1 -88.1 133.4 -95.1 234.3 -81.5C335.1 -68 493.6 -34 549.4 32.2C605.3 98.5 558.5 197 511 302.9C463.5 408.9 415.3 522.3 330 547.4C244.7 572.4 122.3 509.2 3.3 503.6C-115.8 498 -231.7 549.9 -246.7 484.3C-261.7 418.6 -175.9 235.3 -243 135C-310 34.7 -530 17.3 -568 -21.9C-605.9 -61.2 -461.9 -122.3 -388.6 -211.8C-315.2 -301.3 -312.6 -419.1 -259.6 -497.7C-206.7 -576.3 -103.3 -615.6 -43.9 -539.7C15.6 -463.7 31.3 -272.5 60.7 -180.3" fill="#D0E2F2"></path></g></svg>