<svg id="visual" viewBox="0 0 900 600" width="900" height="600" xmlns="http://www.w3.org/2000/svg" xmlns:xlink="http://www.w3.org/1999/xlink" version="1.1"><rect x="0" y="0" width="900" height="600" fill="#fff"></rect><defs><linearGradient id="grad1_0" x1="33.3%" y1="0%" x2="100%" y2="100%"><stop offset="20%" stop-color="#5a7e8c" stop-opacity="1"></stop><stop offset="80%" stop-color="#5a7e8c" stop-opacity="1"></stop></linearGradient></defs><defs><linearGradient id="grad1_1" x1="33.3%" y1="0%" x2="100%" y2="100%"><stop offset="20%" stop-color="#5a7e8c" stop-opacity="1"></stop><stop offset="80%" stop-color="#718f9c" stop-opacity="1"></stop></linearGradient></defs><defs><linearGradient id="grad1_2" x1="33.3%" y1="0%" x2="100%" y2="100%"><stop offset="20%" stop-color="#88a1ac" stop-opacity="1"></stop><stop offset="80%" stop-color="#718f9c" stop-opacity="1"></stop></linearGradient></defs><defs><linearGradient id="grad1_3" x1="33.3%" y1="0%" x2="100%" y2="100%"><stop offset="20%" stop-color="#88a1ac" stop-opacity="1"></stop><stop offset="80%" stop-color="#9fb3bc" stop-opacity="1"></stop></linearGradient></defs><defs><linearGradient id="grad1_4" x1="33.3%" y1="0%" x2="100%" y2="100%"><stop offset="20%" stop-color="#b7c6cc" stop-opacity="1"></stop><stop offset="80%" stop-color="#9fb3bc" stop-opacity="1"></stop></linearGradient></defs><defs><linearGradient id="grad1_5" x1="33.3%" y1="0%" x2="100%" y2="100%"><stop offset="20%" stop-color="#b7c6cc" stop-opacity="1"></stop><stop offset="80%" stop-color="#ced9dd" stop-opacity="1"></stop></linearGradient></defs><defs><linearGradient id="grad1_6" x1="33.3%" y1="0%" x2="100%" y2="100%"><stop offset="20%" stop-color="#e7ecee" stop-opacity="1"></stop><stop offset="80%" stop-color="#ced9dd" stop-opacity="1"></stop></linearGradient></defs><defs><linearGradient id="grad1_7" x1="33.3%" y1="0%" x2="100%" y2="100%"><stop offset="20%" stop-color="#e7ecee" stop-opacity="1"></stop><stop offset="80%" stop-color="#ffffff" stop-opacity="1"></stop></linearGradient></defs><defs><linearGradient id="grad2_0" x1="0%" y1="0%" x2="66.7%" y2="100%"><stop offset="20%" stop-color="#5a7e8c" stop-opacity="1"></stop><stop offset="80%" stop-color="#5a7e8c" stop-opacity="1"></stop></linearGradient></defs><defs><linearGradient id="grad2_1" x1="0%" y1="0%" x2="66.7%" y2="100%"><stop offset="20%" stop-color="#718f9c" stop-opacity="1"></stop><stop offset="80%" stop-color="#5a7e8c" stop-opacity="1"></stop></linearGradient></defs><defs><linearGradient id="grad2_2" x1="0%" y1="0%" x2="66.7%" y2="100%"><stop offset="20%" stop-color="#718f9c" stop-opacity="1"></stop><stop offset="80%" stop-color="#88a1ac" stop-opacity="1"></stop></linearGradient></defs><defs><linearGradient id="grad2_3" x1="0%" y1="0%" x2="66.7%" y2="100%"><stop offset="20%" stop-color="#9fb3bc" stop-opacity="1"></stop><stop offset="80%" stop-color="#88a1ac" stop-opacity="1"></stop></linearGradient></defs><defs><linearGradient id="grad2_4" x1="0%" y1="0%" x2="66.7%" y2="100%"><stop offset="20%" stop-color="#9fb3bc" stop-opacity="1"></stop><stop offset="80%" stop-color="#b7c6cc" stop-opacity="1"></stop></linearGradient></defs><defs><linearGradient id="grad2_5" x1="0%" y1="0%" x2="66.7%" y2="100%"><stop offset="20%" stop-color="#ced9dd" stop-opacity="1"></stop><stop offset="80%" stop-color="#b7c6cc" stop-opacity="1"></stop></linearGradient></defs><defs><linearGradient id="grad2_6" x1="0%" y1="0%" x2="66.7%" y2="100%"><stop offset="20%" stop-color="#ced9dd" stop-opacity="1"></stop><stop offset="80%" stop-color="#e7ecee" stop-opacity="1"></stop></linearGradient></defs><defs><linearGradient id="grad2_7" x1="0%" y1="0%" x2="66.7%" y2="100%"><stop offset="20%" stop-color="#ffffff" stop-opacity="1"></stop><stop offset="80%" stop-color="#e7ecee" stop-opacity="1"></stop></linearGradient></defs><g transform="translate(900, 0)"><path d="M0 540.8C-18.2 513.1 -36.4 485.3 -58.7 483.4C-81 481.6 -107.3 505.5 -120.4 488.4C-133.5 471.2 -133.4 413 -156.7 413.3C-180.1 413.5 -227 472.3 -251.3 478.9C-275.7 485.5 -277.6 439.8 -280.1 405.7C-282.5 371.7 -285.5 349.1 -296.4 334.6C-307.4 320 -326.3 313.5 -339.1 300.4C-351.8 287.3 -358.4 267.7 -358 247.1C-357.6 226.5 -350.3 204.8 -369.2 193.8C-388.1 182.8 -433.2 182.4 -446 169.1C-458.8 155.9 -439.4 129.9 -451.5 111.3C-463.5 92.6 -507 81.3 -527.1 64C-547.3 46.7 -544 23.3 -540.8 0L0 0Z" fill="#f3f5f6"></path><path d="M0 473.2C-15.9 449 -31.9 424.7 -51.4 423C-70.8 421.4 -93.9 442.3 -105.3 427.3C-116.8 412.3 -116.7 361.4 -137.1 361.6C-157.6 361.9 -198.6 413.3 -219.9 419C-241.3 424.8 -242.9 384.8 -245 355C-247.2 325.2 -249.8 305.5 -259.4 292.8C-269 280 -285.5 274.3 -296.7 262.8C-307.8 251.4 -313.6 234.3 -313.2 216.2C-312.9 198.2 -306.6 179.2 -323.1 169.6C-339.6 159.9 -379 159.6 -390.3 148C-401.5 136.4 -384.5 113.7 -395.1 97.4C-405.6 81 -443.6 71.2 -461.2 56C-478.9 40.8 -476 20.4 -473.2 0L0 0Z" fill="#dae2e5"></path><path d="M0 405.6C-13.7 384.8 -27.3 364 -44 362.6C-60.7 361.2 -80.5 379.1 -90.3 366.3C-100.1 353.4 -100 309.8 -117.6 310C-135.1 310.2 -170.2 354.2 -188.5 359.2C-206.8 364.1 -208.2 329.9 -210 304.3C-211.9 278.7 -214.1 261.8 -222.3 250.9C-230.5 240 -244.7 235.1 -254.3 225.3C-263.9 215.5 -268.8 200.8 -268.5 185.3C-268.2 169.9 -262.8 153.6 -276.9 145.3C-291.1 137.1 -324.9 136.8 -334.5 126.9C-344.1 117 -329.6 97.5 -338.6 83.5C-347.6 69.5 -380.2 61 -395.3 48C-410.4 35 -408 17.5 -405.6 0L0 0Z" fill="#c3cfd5"></path><path d="M0 338C-11.4 320.7 -22.8 303.3 -36.7 302.2C-50.6 301 -67 316 -75.2 305.2C-83.4 294.5 -83.4 258.1 -98 258.3C-112.6 258.5 -141.8 295.2 -157.1 299.3C-172.3 303.4 -173.5 274.9 -175 253.6C-176.6 232.3 -178.4 218.2 -185.3 209.1C-192.1 200 -204 195.9 -211.9 187.7C-219.9 179.6 -224 167.3 -223.7 154.4C-223.5 141.6 -219 128 -230.8 121.1C-242.6 114.2 -270.7 114 -278.8 105.7C-286.8 97.5 -274.7 81.2 -282.2 69.6C-289.7 57.9 -316.9 50.8 -329.5 40C-342 29.2 -340 14.6 -338 0L0 0Z" fill="#abbdc4"></path><path d="M0 270.4C-9.1 256.5 -18.2 242.7 -29.4 241.7C-40.5 240.8 -53.6 252.8 -60.2 244.2C-66.7 235.6 -66.7 206.5 -78.4 206.6C-90.1 206.8 -113.5 236.2 -125.7 239.4C-137.9 242.7 -138.8 219.9 -140 202.9C-141.2 185.8 -142.7 174.6 -148.2 167.3C-153.7 160 -163.2 156.7 -169.5 150.2C-175.9 143.7 -179.2 133.9 -179 123.6C-178.8 113.2 -175.2 102.4 -184.6 96.9C-194.1 91.4 -216.6 91.2 -223 84.6C-229.4 78 -219.7 65 -225.7 55.6C-231.8 46.3 -253.5 40.7 -263.6 32C-273.6 23.3 -272 11.7 -270.4 0L0 0Z" fill="#94aab4"></path><path d="M0 202.8C-6.8 192.4 -13.7 182 -22 181.3C-30.4 180.6 -40.2 189.6 -45.1 183.1C-50.1 176.7 -50 154.9 -58.8 155C-67.5 155.1 -85.1 177.1 -94.3 179.6C-103.4 182 -104.1 164.9 -105 152.1C-105.9 139.4 -107 130.9 -111.2 125.5C-115.3 120 -122.4 117.6 -127.2 112.6C-131.9 107.7 -134.4 100.4 -134.2 92.7C-134.1 84.9 -131.4 76.8 -138.5 72.7C-145.5 68.5 -162.4 68.4 -167.3 63.4C-172.1 58.5 -164.8 48.7 -169.3 41.7C-173.8 34.7 -190.1 30.5 -197.7 24C-205.2 17.5 -204 8.8 -202.8 0L0 0Z" fill="#7d98a4"></path><path d="M0 135.2C-4.6 128.3 -9.1 121.3 -14.7 120.9C-20.2 120.4 -26.8 126.4 -30.1 122.1C-33.4 117.8 -33.3 103.3 -39.2 103.3C-45 103.4 -56.7 118.1 -62.8 119.7C-68.9 121.4 -69.4 110 -70 101.4C-70.6 92.9 -71.4 87.3 -74.1 83.6C-76.8 80 -81.6 78.4 -84.8 75.1C-88 71.8 -89.6 66.9 -89.5 61.8C-89.4 56.6 -87.6 51.2 -92.3 48.4C-97 45.7 -108.3 45.6 -111.5 42.3C-114.7 39 -109.9 32.5 -112.9 27.8C-115.9 23.2 -126.7 20.3 -131.8 16C-136.8 11.7 -136 5.8 -135.2 0L0 0Z" fill="#668794"></path><path d="M0 67.6C-2.3 64.1 -4.6 60.7 -7.3 60.4C-10.1 60.2 -13.4 63.2 -15 61C-16.7 58.9 -16.7 51.6 -19.6 51.7C-22.5 51.7 -28.4 59 -31.4 59.9C-34.5 60.7 -34.7 55 -35 50.7C-35.3 46.5 -35.7 43.6 -37.1 41.8C-38.4 40 -40.8 39.2 -42.4 37.5C-44 35.9 -44.8 33.5 -44.7 30.9C-44.7 28.3 -43.8 25.6 -46.2 24.2C-48.5 22.8 -54.1 22.8 -55.8 21.1C-57.4 19.5 -54.9 16.2 -56.4 13.9C-57.9 11.6 -63.4 10.2 -65.9 8C-68.4 5.8 -68 2.9 -67.6 0L0 0Z" fill="#5a7e8c"></path></g><g transform="translate(0, 600)"><path d="M0 -540.8C15.7 -482.1 31.4 -423.5 49.8 -410C68.2 -396.5 89.2 -428.3 106.7 -433C124.2 -437.8 138.2 -415.5 154.6 -407.7C171.1 -399.8 190 -406.4 222.1 -423.2C254.2 -440.1 299.4 -467.3 307.2 -445.1C315 -422.9 285.4 -351.5 283.8 -320.4C282.2 -289.3 308.6 -298.6 347.3 -307.7C386.1 -316.8 437.2 -325.7 440.3 -303.9C443.4 -282.1 398.4 -229.5 377.2 -198C356 -166.4 358.6 -155.9 396.4 -150.4C434.3 -144.8 507.4 -144.3 523.3 -129C539.3 -113.7 498 -83.6 491.4 -59.7C484.8 -35.7 512.8 -17.9 540.8 0L0 0Z" fill="#f3f5f6"></path><path d="M0 -473.2C13.7 -421.9 27.5 -370.5 43.6 -358.7C59.6 -347 78.1 -374.8 93.4 -378.9C108.7 -383.1 120.9 -363.6 135.3 -356.7C149.7 -349.8 166.3 -355.6 194.4 -370.3C222.5 -385.1 262 -408.9 268.8 -389.5C275.7 -370.1 249.8 -307.5 248.3 -280.3C246.9 -253.1 270 -261.3 303.9 -269.2C337.8 -277.2 382.6 -285 385.3 -265.9C388 -246.8 348.6 -200.8 330.1 -173.2C311.5 -145.6 313.8 -136.4 346.9 -131.6C380 -126.7 444 -126.3 457.9 -112.9C471.9 -99.5 435.8 -73.2 430 -52.2C424.2 -31.2 448.7 -15.6 473.2 0L0 0Z" fill="#dae2e5"></path><path d="M0 -405.6C11.8 -361.6 23.5 -317.6 37.3 -307.5C51.1 -297.4 66.9 -321.2 80.1 -324.8C93.2 -328.3 103.6 -311.6 116 -305.8C128.3 -299.9 142.5 -304.8 166.6 -317.4C190.7 -330.1 224.6 -350.4 230.4 -333.8C236.3 -317.2 214.1 -263.6 212.9 -240.3C211.6 -217 231.4 -223.9 260.5 -230.8C289.5 -237.6 327.9 -244.3 330.2 -227.9C332.5 -211.6 298.8 -172.1 282.9 -148.5C267 -124.8 268.9 -116.9 297.3 -112.8C325.7 -108.6 380.6 -108.2 392.5 -96.7C404.4 -85.3 373.5 -62.7 368.5 -44.7C363.6 -26.8 384.6 -13.4 405.6 0L0 0Z" fill="#c3cfd5"></path><path d="M0 -338C9.8 -301.3 19.6 -264.7 31.1 -256.2C42.6 -247.8 55.8 -267.7 66.7 -270.7C77.6 -273.6 86.3 -259.7 96.6 -254.8C106.9 -249.9 118.8 -254 138.8 -264.5C158.9 -275.1 187.1 -292 192 -278.2C196.9 -264.3 178.4 -219.7 177.4 -200.2C176.4 -180.8 192.8 -186.6 217.1 -192.3C241.3 -198 273.3 -203.6 275.2 -189.9C277.1 -176.3 249 -143.5 235.8 -123.7C222.5 -104 224.1 -97.4 247.8 -94C271.4 -90.5 317.1 -90.2 327.1 -80.6C337 -71.1 311.3 -52.3 307.1 -37.3C303 -22.3 320.5 -11.2 338 0L0 0Z" fill="#abbdc4"></path><path d="M0 -270.4C7.8 -241.1 15.7 -211.7 24.9 -205C34.1 -198.3 44.6 -214.1 53.4 -216.5C62.1 -218.9 69.1 -207.8 77.3 -203.8C85.5 -199.9 95 -203.2 111.1 -211.6C127.1 -220.1 149.7 -233.6 153.6 -222.5C157.5 -211.5 142.7 -175.7 141.9 -160.2C141.1 -144.6 154.3 -149.3 173.7 -153.8C193 -158.4 218.6 -162.9 220.1 -152C221.7 -141 199.2 -114.8 188.6 -99C178 -83.2 179.3 -77.9 198.2 -75.2C217.1 -72.4 253.7 -72.1 261.7 -64.5C269.6 -56.8 249 -41.8 245.7 -29.8C242.4 -17.9 256.4 -8.9 270.4 0L0 0Z" fill="#94aab4"></path><path d="M0 -202.8C5.9 -180.8 11.8 -158.8 18.7 -153.7C25.6 -148.7 33.5 -160.6 40 -162.4C46.6 -164.2 51.8 -155.8 58 -152.9C64.1 -149.9 71.3 -152.4 83.3 -158.7C95.3 -165 112.3 -175.2 115.2 -166.9C118.1 -158.6 107 -131.8 106.4 -120.1C105.8 -108.5 115.7 -112 130.2 -115.4C144.8 -118.8 164 -122.2 165.1 -114C166.3 -105.8 149.4 -86.1 141.5 -74.2C133.5 -62.4 134.5 -58.5 148.7 -56.4C162.9 -54.3 190.3 -54.1 196.3 -48.4C202.2 -42.6 186.8 -31.4 184.3 -22.4C181.8 -13.4 192.3 -6.7 202.8 0L0 0Z" fill="#7d98a4"></path><path d="M0 -135.2C3.9 -120.5 7.8 -105.9 12.4 -102.5C17 -99.1 22.3 -107.1 26.7 -108.3C31.1 -109.4 34.5 -103.9 38.7 -101.9C42.8 -100 47.5 -101.6 55.5 -105.8C63.6 -110 74.9 -116.8 76.8 -111.3C78.8 -105.7 71.4 -87.9 71 -80.1C70.5 -72.3 77.1 -74.6 86.8 -76.9C96.5 -79.2 109.3 -81.4 110.1 -76C110.8 -70.5 99.6 -57.4 94.3 -49.5C89 -41.6 89.6 -39 99.1 -37.6C108.6 -36.2 126.9 -36.1 130.8 -32.2C134.8 -28.4 124.5 -20.9 122.8 -14.9C121.2 -8.9 128.2 -4.5 135.2 0L0 0Z" fill="#668794"></path><path d="M0 -67.6C2 -60.3 3.9 -52.9 6.2 -51.2C8.5 -49.6 11.2 -53.5 13.3 -54.1C15.5 -54.7 17.3 -51.9 19.3 -51C21.4 -50 23.8 -50.8 27.8 -52.9C31.8 -55 37.4 -58.4 38.4 -55.6C39.4 -52.9 35.7 -43.9 35.5 -40C35.3 -36.2 38.6 -37.3 43.4 -38.5C48.3 -39.6 54.7 -40.7 55 -38C55.4 -35.3 49.8 -28.7 47.2 -24.7C44.5 -20.8 44.8 -19.5 49.6 -18.8C54.3 -18.1 63.4 -18 65.4 -16.1C67.4 -14.2 62.3 -10.5 61.4 -7.5C60.6 -4.5 64.1 -2.2 67.6 0L0 0Z" fill="#5a7e8c"></path></g></svg>