<svg id="visual" viewBox="0 0 900 600" width="900" height="600" xmlns="http://www.w3.org/2000/svg" xmlns:xlink="http://www.w3.org/1999/xlink" version="1.1"><rect x="0" y="0" width="900" height="600" fill="#FFFFFF"></rect><defs><linearGradient id="grad1_0" x1="33.3%" y1="0%" x2="100%" y2="100%"><stop offset="20%" stop-color="#fa7268" stop-opacity="1"></stop><stop offset="80%" stop-color="#fa7268" stop-opacity="1"></stop></linearGradient></defs><defs><linearGradient id="grad1_1" x1="33.3%" y1="0%" x2="100%" y2="100%"><stop offset="20%" stop-color="#fa7268" stop-opacity="1"></stop><stop offset="80%" stop-color="#fe887c" stop-opacity="1"></stop></linearGradient></defs><defs><linearGradient id="grad1_2" x1="33.3%" y1="0%" x2="100%" y2="100%"><stop offset="20%" stop-color="#ff9c91" stop-opacity="1"></stop><stop offset="80%" stop-color="#fe887c" stop-opacity="1"></stop></linearGradient></defs><defs><linearGradient id="grad1_3" x1="33.3%" y1="0%" x2="100%" y2="100%"><stop offset="20%" stop-color="#ff9c91" stop-opacity="1"></stop><stop offset="80%" stop-color="#ffb0a6" stop-opacity="1"></stop></linearGradient></defs><defs><linearGradient id="grad1_4" x1="33.3%" y1="0%" x2="100%" y2="100%"><stop offset="20%" stop-color="#ffc4bc" stop-opacity="1"></stop><stop offset="80%" stop-color="#ffb0a6" stop-opacity="1"></stop></linearGradient></defs><defs><linearGradient id="grad1_5" x1="33.3%" y1="0%" x2="100%" y2="100%"><stop offset="20%" stop-color="#ffc4bc" stop-opacity="1"></stop><stop offset="80%" stop-color="#ffd8d2" stop-opacity="1"></stop></linearGradient></defs><defs><linearGradient id="grad1_6" x1="33.3%" y1="0%" x2="100%" y2="100%"><stop offset="20%" stop-color="#ffebe8" stop-opacity="1"></stop><stop offset="80%" stop-color="#ffd8d2" stop-opacity="1"></stop></linearGradient></defs><defs><linearGradient id="grad1_7" x1="33.3%" y1="0%" x2="100%" y2="100%"><stop offset="20%" stop-color="#ffebe8" stop-opacity="1"></stop><stop offset="80%" stop-color="#ffffff" stop-opacity="1"></stop></linearGradient></defs><defs><linearGradient id="grad2_0" x1="0%" y1="0%" x2="66.7%" y2="100%"><stop offset="20%" stop-color="#fa7268" stop-opacity="1"></stop><stop offset="80%" stop-color="#fa7268" stop-opacity="1"></stop></linearGradient></defs><defs><linearGradient id="grad2_1" x1="0%" y1="0%" x2="66.7%" y2="100%"><stop offset="20%" stop-color="#fe887c" stop-opacity="1"></stop><stop offset="80%" stop-color="#fa7268" stop-opacity="1"></stop></linearGradient></defs><defs><linearGradient id="grad2_2" x1="0%" y1="0%" x2="66.7%" y2="100%"><stop offset="20%" stop-color="#fe887c" stop-opacity="1"></stop><stop offset="80%" stop-color="#ff9c91" stop-opacity="1"></stop></linearGradient></defs><defs><linearGradient id="grad2_3" x1="0%" y1="0%" x2="66.7%" y2="100%"><stop offset="20%" stop-color="#ffb0a6" stop-opacity="1"></stop><stop offset="80%" stop-color="#ff9c91" stop-opacity="1"></stop></linearGradient></defs><defs><linearGradient id="grad2_4" x1="0%" y1="0%" x2="66.7%" y2="100%"><stop offset="20%" stop-color="#ffb0a6" stop-opacity="1"></stop><stop offset="80%" stop-color="#ffc4bc" stop-opacity="1"></stop></linearGradient></defs><defs><linearGradient id="grad2_5" x1="0%" y1="0%" x2="66.7%" y2="100%"><stop offset="20%" stop-color="#ffd8d2" stop-opacity="1"></stop><stop offset="80%" stop-color="#ffc4bc" stop-opacity="1"></stop></linearGradient></defs><defs><linearGradient id="grad2_6" x1="0%" y1="0%" x2="66.7%" y2="100%"><stop offset="20%" stop-color="#ffd8d2" stop-opacity="1"></stop><stop offset="80%" stop-color="#ffebe8" stop-opacity="1"></stop></linearGradient></defs><defs><linearGradient id="grad2_7" x1="0%" y1="0%" x2="66.7%" y2="100%"><stop offset="20%" stop-color="#ffffff" stop-opacity="1"></stop><stop offset="80%" stop-color="#ffebe8" stop-opacity="1"></stop></linearGradient></defs><g transform="translate(900, 0)"><path d="M0 540.8C-33.1 536.9 -66.2 533 -105.5 530.4C-144.9 527.9 -190.5 526.7 -193.6 467.5C-196.8 408.3 -157.6 291 -181.1 271.1C-204.7 251.1 -291 328.4 -350 350C-409 371.6 -440.6 337.5 -443.2 296.1C-445.8 254.8 -419.4 206.3 -413.9 171.4C-408.4 136.6 -423.6 115.5 -448.2 89.2C-472.8 62.9 -506.8 31.4 -540.8 0L0 0Z" fill="#fff5f4"></path><path d="M0 473.2C-28.9 469.8 -57.9 466.4 -92.3 464.1C-126.7 461.9 -166.7 460.9 -169.4 409C-172.2 357.2 -137.9 254.6 -158.5 237.2C-179.1 219.7 -254.7 287.4 -306.3 306.3C-357.9 325.2 -385.5 295.3 -387.8 259.1C-390.1 222.9 -367 180.5 -362.2 150C-357.3 119.5 -370.6 101 -392.2 78C-413.7 55 -443.5 27.5 -473.2 0L0 0Z" fill="#ffe2dd"></path><path d="M0 405.6C-24.8 402.7 -49.6 399.7 -79.1 397.8C-108.6 395.9 -142.8 395 -145.2 350.6C-147.6 306.2 -118.2 218.3 -135.8 203.3C-153.5 188.3 -218.3 246.3 -262.5 262.5C-306.7 278.7 -330.4 253.1 -332.4 222.1C-334.3 191.1 -314.6 154.7 -310.4 128.6C-306.3 102.5 -317.7 86.6 -336.2 66.9C-354.6 47.1 -380.1 23.6 -405.6 0L0 0Z" fill="#ffcec7"></path><path d="M0 338C-20.7 335.6 -41.4 333.1 -65.9 331.5C-90.5 329.9 -119 329.2 -121 292.2C-123 255.2 -98.5 181.9 -113.2 169.4C-127.9 156.9 -181.9 205.3 -218.8 218.8C-255.6 232.3 -275.3 210.9 -277 185.1C-278.6 159.2 -262.2 128.9 -258.7 107.2C-255.2 85.4 -264.7 72.2 -280.1 55.7C-295.5 39.3 -316.8 19.6 -338 0L0 0Z" fill="#ffbab1"></path><path d="M0 270.4C-16.5 268.5 -33.1 266.5 -52.8 265.2C-72.4 263.9 -95.2 263.4 -96.8 233.7C-98.4 204.1 -78.8 145.5 -90.6 135.5C-102.3 125.6 -145.5 164.2 -175 175C-204.5 185.8 -220.3 168.7 -221.6 148.1C-222.9 127.4 -209.7 103.1 -206.9 85.7C-204.2 68.3 -211.8 57.7 -224.1 44.6C-236.4 31.4 -253.4 15.7 -270.4 0L0 0Z" fill="#ffa69b"></path><path d="M0 202.8C-12.4 201.3 -24.8 199.9 -39.6 198.9C-54.3 198 -71.4 197.5 -72.6 175.3C-73.8 153.1 -59.1 109.1 -67.9 101.6C-76.8 94.2 -109.1 123.2 -131.3 131.3C-153.4 139.4 -165.2 126.5 -166.2 111C-167.2 95.5 -157.3 77.4 -155.2 64.3C-153.1 51.2 -158.8 43.3 -168.1 33.4C-177.3 23.6 -190.1 11.8 -202.8 0L0 0Z" fill="#ff9286"></path><path d="M0 135.2C-8.3 134.2 -16.5 133.2 -26.4 132.6C-36.2 132 -47.6 131.7 -48.4 116.9C-49.2 102.1 -39.4 72.8 -45.3 67.8C-51.2 62.8 -72.8 82.1 -87.5 87.5C-102.2 92.9 -110.1 84.4 -110.8 74C-111.4 63.7 -104.9 51.6 -103.5 42.9C-102.1 34.2 -105.9 28.9 -112.1 22.3C-118.2 15.7 -126.7 7.9 -135.2 0L0 0Z" fill="#fc7d72"></path><path d="M0 67.6C-4.1 67.1 -8.3 66.6 -13.2 66.3C-18.1 66 -23.8 65.8 -24.2 58.4C-24.6 51 -19.7 36.4 -22.6 33.9C-25.6 31.4 -36.4 41.1 -43.8 43.8C-51.1 46.5 -55.1 42.2 -55.4 37C-55.7 31.8 -52.4 25.8 -51.7 21.4C-51 17.1 -52.9 14.4 -56 11.1C-59.1 7.9 -63.4 3.9 -67.6 0L0 0Z" fill="#fa7268"></path></g><g transform="translate(0, 600)"><path d="M0 -540.8C43 -559.3 86 -577.7 105.5 -530.4C125.1 -483.2 121.2 -370.2 135.1 -326.1C149 -282.1 180.7 -307.1 213.3 -319.3C246 -331.5 279.6 -331 332.3 -332.3C385.1 -333.7 456.9 -337 447.3 -298.9C437.7 -260.8 346.7 -181.2 350.2 -145C353.6 -108.9 451.7 -116.2 499.2 -99.3C546.8 -82.4 543.8 -41.2 540.8 0L0 0Z" fill="#fff5f4"></path><path d="M0 -473.2C37.6 -489.4 75.2 -505.5 92.3 -464.1C109.4 -422.8 106 -323.9 118.2 -285.4C130.4 -246.8 158.1 -268.7 186.7 -279.4C215.2 -290.1 244.7 -289.6 290.8 -290.8C336.9 -292 399.8 -294.9 391.4 -261.5C383 -228.2 303.3 -158.5 306.4 -126.9C309.4 -95.3 395.2 -101.7 436.8 -86.9C478.4 -72.1 475.8 -36 473.2 0L0 0Z" fill="#ffe2dd"></path><path d="M0 -405.6C32.2 -419.5 64.5 -433.3 79.1 -397.8C93.8 -362.4 90.9 -277.6 101.3 -244.6C111.7 -211.6 135.5 -230.3 160 -239.5C184.5 -248.6 209.7 -248.2 249.3 -249.3C288.8 -250.3 342.7 -252.8 335.5 -224.2C328.3 -195.6 260 -135.9 262.6 -108.8C265.2 -81.7 338.8 -87.2 374.4 -74.5C410.1 -61.8 407.8 -30.9 405.6 0L0 0Z" fill="#ffcec7"></path><path d="M0 -338C26.9 -349.5 53.7 -361.1 65.9 -331.5C78.2 -302 75.7 -231.3 84.4 -203.8C93.1 -176.3 112.9 -191.9 133.3 -199.6C153.7 -207.2 174.8 -206.8 207.7 -207.7C240.7 -208.6 285.6 -210.6 279.6 -186.8C273.6 -163 216.7 -113.2 218.8 -90.6C221 -68.1 282.3 -72.6 312 -62.1C341.7 -51.5 339.9 -25.7 338 0L0 0Z" fill="#ffbab1"></path><path d="M0 -270.4C21.5 -279.6 43 -288.9 52.8 -265.2C62.5 -241.6 60.6 -185.1 67.5 -163.1C74.5 -141.1 90.3 -153.5 106.7 -159.6C123 -165.7 139.8 -165.5 166.2 -166.2C192.5 -166.9 228.5 -168.5 223.7 -149.4C218.9 -130.4 173.3 -90.6 175.1 -72.5C176.8 -54.5 225.8 -58.1 249.6 -49.7C273.4 -41.2 271.9 -20.6 270.4 0L0 0Z" fill="#ffa69b"></path><path d="M0 -202.8C16.1 -209.7 32.2 -216.6 39.6 -198.9C46.9 -181.2 45.4 -138.8 50.7 -122.3C55.9 -105.8 67.8 -115.2 80 -119.7C92.2 -124.3 104.9 -124.1 124.6 -124.6C144.4 -125.1 171.4 -126.4 167.7 -112.1C164.1 -97.8 130 -67.9 131.3 -54.4C132.6 -40.8 169.4 -43.6 187.2 -37.2C205 -30.9 203.9 -15.4 202.8 0L0 0Z" fill="#ff9286"></path><path d="M0 -135.2C10.7 -139.8 21.5 -144.4 26.4 -132.6C31.3 -120.8 30.3 -92.5 33.8 -81.5C37.2 -70.5 45.2 -76.8 53.3 -79.8C61.5 -82.9 69.9 -82.7 83.1 -83.1C96.3 -83.4 114.2 -84.3 111.8 -74.7C109.4 -65.2 86.7 -45.3 87.5 -36.3C88.4 -27.2 112.9 -29.1 124.8 -24.8C136.7 -20.6 135.9 -10.3 135.2 0L0 0Z" fill="#fc7d72"></path><path d="M0 -67.6C5.4 -69.9 10.7 -72.2 13.2 -66.3C15.6 -60.4 15.1 -46.3 16.9 -40.8C18.6 -35.3 22.6 -38.4 26.7 -39.9C30.7 -41.4 35 -41.4 41.5 -41.5C48.1 -41.7 57.1 -42.1 55.9 -37.4C54.7 -32.6 43.3 -22.6 43.8 -18.1C44.2 -13.6 56.5 -14.5 62.4 -12.4C68.3 -10.3 68 -5.1 67.6 0L0 0Z" fill="#fa7268"></path></g></svg>