<svg id="visual" viewBox="0 0 960 540" xmlns="http://www.w3.org/2000/svg" xmlns:xlink="http://www.w3.org/1999/xlink" version="1.1"><path d="M0 464L22.8 461.7C45.7 459.3 91.3 454.7 137 455.2C182.7 455.7 228.3 461.3 274 466.2C319.7 471 365.3 475 411.2 477.2C457 479.3 503 479.7 548.8 480.5C594.7 481.3 640.3 482.7 686 480.5C731.7 478.3 777.3 472.7 823 469.8C868.7 467 914.3 467 937.2 467L960 467L960 541L937.2 541C914.3 541 868.7 541 823 541C777.3 541 731.7 541 686 541C640.3 541 594.7 541 548.8 541C503 541 457 541 411.2 541C365.3 541 319.7 541 274 541C228.3 541 182.7 541 137 541C91.3 541 45.7 541 22.8 541L0 541Z" fill="#fa7268"></path><path d="M0 481L22.8 478.8C45.7 476.7 91.3 472.3 137 474.2C182.7 476 228.3 484 274 483.7C319.7 483.3 365.3 474.7 411.2 470.7C457 466.7 503 467.3 548.8 471.8C594.7 476.3 640.3 484.7 686 486.8C731.7 489 777.3 485 823 481.2C868.7 477.3 914.3 473.7 937.2 471.8L960 470L960 541L937.2 541C914.3 541 868.7 541 823 541C777.3 541 731.7 541 686 541C640.3 541 594.7 541 548.8 541C503 541 457 541 411.2 541C365.3 541 319.7 541 274 541C228.3 541 182.7 541 137 541C91.3 541 45.7 541 22.8 541L0 541Z" fill="#ee706a"></path><path d="M0 489L22.8 488.3C45.7 487.7 91.3 486.3 137 488.2C182.7 490 228.3 495 274 497.8C319.7 500.7 365.3 501.3 411.2 501.7C457 502 503 502 548.8 499.5C594.7 497 640.3 492 686 490.5C731.7 489 777.3 491 823 492.5C868.7 494 914.3 495 937.2 495.5L960 496L960 541L937.2 541C914.3 541 868.7 541 823 541C777.3 541 731.7 541 686 541C640.3 541 594.7 541 548.8 541C503 541 457 541 411.2 541C365.3 541 319.7 541 274 541C228.3 541 182.7 541 137 541C91.3 541 45.7 541 22.8 541L0 541Z" fill="#e16f6b"></path><path d="M0 496L22.8 499C45.7 502 91.3 508 137 511.2C182.7 514.3 228.3 514.7 274 513.8C319.7 513 365.3 511 411.2 511.3C457 511.7 503 514.3 548.8 514.5C594.7 514.7 640.3 512.3 686 509.8C731.7 507.3 777.3 504.7 823 504.2C868.7 503.7 914.3 505.3 937.2 506.2L960 507L960 541L937.2 541C914.3 541 868.7 541 823 541C777.3 541 731.7 541 686 541C640.3 541 594.7 541 548.8 541C503 541 457 541 411.2 541C365.3 541 319.7 541 274 541C228.3 541 182.7 541 137 541C91.3 541 45.7 541 22.8 541L0 541Z" fill="#d56d6c"></path><path d="M0 517L22.8 517.7C45.7 518.3 91.3 519.7 137 521.2C182.7 522.7 228.3 524.3 274 525.5C319.7 526.7 365.3 527.3 411.2 526.5C457 525.7 503 523.3 548.8 521.8C594.7 520.3 640.3 519.7 686 518.3C731.7 517 777.3 515 823 515.5C868.7 516 914.3 519 937.2 520.5L960 522L960 541L937.2 541C914.3 541 868.7 541 823 541C777.3 541 731.7 541 686 541C640.3 541 594.7 541 548.8 541C503 541 457 541 411.2 541C365.3 541 319.7 541 274 541C228.3 541 182.7 541 137 541C91.3 541 45.7 541 22.8 541L0 541Z" fill="#c86c6c"></path></svg>