<svg id="visual" viewBox="0 0 960 540" width="960" height="540" xmlns="http://www.w3.org/2000/svg" xmlns:xlink="http://www.w3.org/1999/xlink" version="1.1"><path d="M0 114L80 104.2C160 94.3 320 74.7 480 55.7C640 36.7 800 18.3 880 9.2L960 0L960 0L880 0C800 0 640 0 480 0C320 0 160 0 80 0L0 0Z" fill="#ffffff"></path><path d="M0 222L80 215.8C160 209.7 320 197.3 480 165C640 132.7 800 80.3 880 54.2L960 28L960 0L880 8.8C800 17.7 640 35.3 480 54C320 72.7 160 92.3 80 102.2L0 112Z" fill="#fff8f8"></path><path d="M0 244L80 238.7C160 233.3 320 222.7 480 193.8C640 165 800 118 880 94.5L960 71L960 26L880 52.2C800 78.3 640 130.7 480 163C320 195.3 160 207.7 80 213.8L0 220Z" fill="#fff2f0"></path><path d="M0 276L80 267C160 258 320 240 480 206.8C640 173.7 800 125.3 880 101.2L960 77L960 69L880 92.5C800 116 640 163 480 191.8C320 220.7 160 231.3 80 236.7L0 242Z" fill="#ffebe9"></path><path d="M0 390L80 364.8C160 339.7 320 289.3 480 246.2C640 203 800 167 880 149L960 131L960 75L880 99.2C800 123.3 640 171.7 480 204.8C320 238 160 256 80 265L0 274Z" fill="#ffe5e2"></path><path d="M0 401L80 386.5C160 372 320 343 480 298.8C640 254.7 800 195.3 880 165.7L960 136L960 129L880 147C800 165 640 201 480 244.2C320 287.3 160 337.7 80 362.8L0 388Z" fill="#ffdedb"></path><path d="M0 428L80 409C160 390 320 352 480 307C640 262 800 210 880 184L960 158L960 134L880 163.7C800 193.3 640 252.7 480 296.8C320 341 160 370 80 384.5L0 399Z" fill="#ffd8d3"></path><path d="M0 460L80 440.2C160 420.3 320 380.7 480 335.7C640 290.7 800 240.3 880 215.2L960 190L960 156L880 182C800 208 640 260 480 305C320 350 160 388 80 407L0 426Z" fill="#ffd1cc"></path><path d="M0 498L80 492.5C160 487 320 476 480 466C640 456 800 447 880 442.5L960 438L960 188L880 213.2C800 238.3 640 288.7 480 333.7C320 378.7 160 418.3 80 438.2L0 458Z" fill="#ffcac5"></path><path d="M0 514L80 516.7C160 519.3 320 524.7 480 518.3C640 512 800 494 880 485L960 476L960 436L880 440.5C800 445 640 454 480 464C320 474 160 485 80 490.5L0 496Z" fill="#fec4be"></path><path d="M0 541L80 540.2C160 539.3 320 537.7 480 532.3C640 527 800 518 880 513.5L960 509L960 474L880 483C800 492 640 510 480 516.3C320 522.7 160 517.3 80 514.7L0 512Z" fill="#febdb8"></path><path d="M0 541L80 541C160 541 320 541 480 541C640 541 800 541 880 541L960 541L960 507L880 511.5C800 516 640 525 480 530.3C320 535.7 160 537.3 80 538.2L0 539Z" fill="#fdb6b1"></path></svg>