<svg id="visual" viewBox="0 0 960 540" width="960" height="540" xmlns="http://www.w3.org/2000/svg" xmlns:xlink="http://www.w3.org/1999/xlink" version="1.1"><path d="M0 55L7 67.7C14 80.3 28 105.7 41.8 107.5C55.7 109.3 69.3 87.7 83.2 73.2C97 58.7 111 51.3 125 73.8C139 96.3 153 148.7 167 155.8C181 163 195 125 208.8 109.7C222.7 94.3 236.3 101.7 250.2 108C264 114.3 278 119.7 292 118.8C306 118 320 111 334 112.8C348 114.7 362 125.3 375.8 118C389.7 110.7 403.3 85.3 417.2 80C431 74.7 445 89.3 459 87.7C473 86 487 68 501 70.7C515 73.3 529 96.7 542.8 117.3C556.7 138 570.3 156 584.2 152.3C598 148.7 612 123.3 626 114.3C640 105.3 654 112.7 668 114.5C682 116.3 696 112.7 709.8 110.8C723.7 109 737.3 109 751.2 115.3C765 121.7 779 134.3 793 130.7C807 127 821 107 835 88C849 69 863 51 876.8 57.3C890.7 63.7 904.3 94.3 918.2 95.3C932 96.3 946 67.7 953 53.3L960 39L960 0L953 0C946 0 932 0 918.2 0C904.3 0 890.7 0 876.8 0C863 0 849 0 835 0C821 0 807 0 793 0C779 0 765 0 751.2 0C737.3 0 723.7 0 709.8 0C696 0 682 0 668 0C654 0 640 0 626 0C612 0 598 0 584.2 0C570.3 0 556.7 0 542.8 0C529 0 515 0 501 0C487 0 473 0 459 0C445 0 431 0 417.2 0C403.3 0 389.7 0 375.8 0C362 0 348 0 334 0C320 0 306 0 292 0C278 0 264 0 250.2 0C236.3 0 222.7 0 208.8 0C195 0 181 0 167 0C153 0 139 0 125 0C111 0 97 0 83.2 0C69.3 0 55.7 0 41.8 0C28 0 14 0 7 0L0 0Z" fill="#ffffff"></path><path d="M0 66L7 80.3C14 94.7 28 123.3 41.8 127.8C55.7 132.3 69.3 112.7 83.2 98.3C97 84 111 75 125 96.5C139 118 153 170 167 174.5C181 179 195 136 208.8 120.8C222.7 105.7 236.3 118.3 250.2 129.2C264 140 278 149 292 149C306 149 320 140 334 137.2C348 134.3 362 137.7 375.8 130.3C389.7 123 403.3 105 417.2 99.7C431 94.3 445 101.7 459 100.8C473 100 487 91 501 96.3C515 101.7 529 121.3 542.8 141.2C556.7 161 570.3 181 584.2 176.5C598 172 612 143 626 130.3C640 117.7 654 121.3 668 121.3C682 121.3 696 117.7 709.8 115.8C723.7 114 737.3 114 751.2 122.2C765 130.3 779 146.7 793 146.7C807 146.7 821 130.3 835 111.5C849 92.7 863 71.3 876.8 75.8C890.7 80.3 904.3 110.7 918.2 114.2C932 117.7 946 94.3 953 82.7L960 71L960 37L953 51.3C946 65.7 932 94.3 918.2 93.3C904.3 92.3 890.7 61.7 876.8 55.3C863 49 849 67 835 86C821 105 807 125 793 128.7C779 132.3 765 119.7 751.2 113.3C737.3 107 723.7 107 709.8 108.8C696 110.7 682 114.3 668 112.5C654 110.7 640 103.3 626 112.3C612 121.3 598 146.7 584.2 150.3C570.3 154 556.7 136 542.8 115.3C529 94.7 515 71.3 501 68.7C487 66 473 84 459 85.7C445 87.3 431 72.7 417.2 78C403.3 83.3 389.7 108.7 375.8 116C362 123.3 348 112.7 334 110.8C320 109 306 116 292 116.8C278 117.7 264 112.3 250.2 106C236.3 99.7 222.7 92.3 208.8 107.7C195 123 181 161 167 153.8C153 146.7 139 94.3 125 71.8C111 49.3 97 56.7 83.2 71.2C69.3 85.7 55.7 107.3 41.8 105.5C28 103.7 14 78.3 7 65.7L0 53Z" fill="#f4f7f6"></path><path d="M0 87L7 103.3C14 119.7 28 152.3 41.8 156.8C55.7 161.3 69.3 137.7 83.2 122.3C97 107 111 100 125 123.5C139 147 153 201 167 202.8C181 204.7 195 154.3 208.8 141.7C222.7 129 236.3 154 250.2 164.7C264 175.3 278 171.7 292 169.8C306 168 320 168 334 167.2C348 166.3 362 164.7 375.8 156.7C389.7 148.7 403.3 134.3 417.2 131.7C431 129 445 138 459 137C473 136 487 125 501 130.3C515 135.7 529 157.3 542.8 173.7C556.7 190 570.3 201 584.2 198.3C598 195.7 612 179.3 626 172C640 164.7 654 166.3 668 164.5C682 162.7 696 157.3 709.8 152C723.7 146.7 737.3 141.3 751.2 151.3C765 161.3 779 186.7 793 187.5C807 188.3 821 164.7 835 143.8C849 123 863 105 876.8 106.8C890.7 108.7 904.3 130.3 918.2 132.2C932 134 946 116 953 107L960 98L960 69L953 80.7C946 92.3 932 115.7 918.2 112.2C904.3 108.7 890.7 78.3 876.8 73.8C863 69.3 849 90.7 835 109.5C821 128.3 807 144.7 793 144.7C779 144.7 765 128.3 751.2 120.2C737.3 112 723.7 112 709.8 113.8C696 115.7 682 119.3 668 119.3C654 119.3 640 115.7 626 128.3C612 141 598 170 584.2 174.5C570.3 179 556.7 159 542.8 139.2C529 119.3 515 99.7 501 94.3C487 89 473 98 459 98.8C445 99.7 431 92.3 417.2 97.7C403.3 103 389.7 121 375.8 128.3C362 135.7 348 132.3 334 135.2C320 138 306 147 292 147C278 147 264 138 250.2 127.2C236.3 116.3 222.7 103.7 208.8 118.8C195 134 181 177 167 172.5C153 168 139 116 125 94.5C111 73 97 82 83.2 96.3C69.3 110.7 55.7 130.3 41.8 125.8C28 121.3 14 92.7 7 78.3L0 64Z" fill="#eaeeec"></path><path d="M0 158L7 167C14 176 28 194 41.8 196.7C55.7 199.3 69.3 186.7 83.2 172.2C97 157.7 111 141.3 125 162.8C139 184.3 153 243.7 167 251.8C181 260 195 217 208.8 201.8C222.7 186.7 236.3 199.3 250.2 207.3C264 215.3 278 218.7 292 222.2C306 225.7 320 229.3 334 225.8C348 222.3 362 211.7 375.8 202.7C389.7 193.7 403.3 186.3 417.2 187.2C431 188 445 197 459 195.2C473 193.3 487 180.7 501 187.8C515 195 529 222 542.8 241.8C556.7 261.7 570.3 274.3 584.2 269.8C598 265.3 612 243.7 626 234.7C640 225.7 654 229.3 668 226.7C682 224 696 215 709.8 208.7C723.7 202.3 737.3 198.7 751.2 212.2C765 225.7 779 256.3 793 256.3C807 256.3 821 225.7 835 206.8C849 188 863 181 876.8 178.3C890.7 175.7 904.3 177.3 918.2 167.3C932 157.3 946 135.7 953 124.8L960 114L960 96L953 105C946 114 932 132 918.2 130.2C904.3 128.3 890.7 106.7 876.8 104.8C863 103 849 121 835 141.8C821 162.7 807 186.3 793 185.5C779 184.7 765 159.3 751.2 149.3C737.3 139.3 723.7 144.7 709.8 150C696 155.3 682 160.7 668 162.5C654 164.3 640 162.7 626 170C612 177.3 598 193.7 584.2 196.3C570.3 199 556.7 188 542.8 171.7C529 155.3 515 133.7 501 128.3C487 123 473 134 459 135C445 136 431 127 417.2 129.7C403.3 132.3 389.7 146.7 375.8 154.7C362 162.7 348 164.3 334 165.2C320 166 306 166 292 167.8C278 169.7 264 173.3 250.2 162.7C236.3 152 222.7 127 208.8 139.7C195 152.3 181 202.7 167 200.8C153 199 139 145 125 121.5C111 98 97 105 83.2 120.3C69.3 135.7 55.7 159.3 41.8 154.8C28 150.3 14 117.7 7 101.3L0 85Z" fill="#e0e6e3"></path><path d="M0 190L7 201.7C14 213.3 28 236.7 41.8 235.8C55.7 235 69.3 210 83.2 193.8C97 177.7 111 170.3 125 194.5C139 218.7 153 274.3 167 284.2C181 294 195 258 208.8 243.7C222.7 229.3 236.3 236.7 250.2 238.5C264 240.3 278 236.7 292 239.3C306 242 320 251 334 254.7C348 258.3 362 256.7 375.8 251.3C389.7 246 403.3 237 417.2 231.5C431 226 445 224 459 215.8C473 207.7 487 193.3 501 205.2C515 217 529 255 542.8 278.5C556.7 302 570.3 311 584.2 304.7C598 298.3 612 276.7 626 269.3C640 262 654 269 668 263.5C682 258 696 240 709.8 232C723.7 224 737.3 226 751.2 246.8C765 267.7 779 307.3 793 306.3C807 305.3 821 263.7 835 236.7C849 209.7 863 197.3 876.8 193.8C890.7 190.3 904.3 195.7 918.2 192.8C932 190 946 179 953 173.5L960 168L960 112L953 122.8C946 133.7 932 155.3 918.2 165.3C904.3 175.3 890.7 173.7 876.8 176.3C863 179 849 186 835 204.8C821 223.7 807 254.3 793 254.3C779 254.3 765 223.7 751.2 210.2C737.3 196.7 723.7 200.3 709.8 206.7C696 213 682 222 668 224.7C654 227.3 640 223.7 626 232.7C612 241.7 598 263.3 584.2 267.8C570.3 272.3 556.7 259.7 542.8 239.8C529 220 515 193 501 185.8C487 178.7 473 191.3 459 193.2C445 195 431 186 417.2 185.2C403.3 184.3 389.7 191.7 375.8 200.7C362 209.7 348 220.3 334 223.8C320 227.3 306 223.7 292 220.2C278 216.7 264 213.3 250.2 205.3C236.3 197.3 222.7 184.7 208.8 199.8C195 215 181 258 167 249.8C153 241.7 139 182.3 125 160.8C111 139.3 97 155.7 83.2 170.2C69.3 184.7 55.7 197.3 41.8 194.7C28 192 14 174 7 165L0 156Z" fill="#d5deda"></path><path d="M0 195L7 211.3C14 227.7 28 260.3 41.8 263.2C55.7 266 69.3 239 83.2 221C97 203 111 194 125 218.2C139 242.3 153 299.7 167 311.3C181 323 195 289 208.8 271C222.7 253 236.3 251 250.2 250C264 249 278 249 292 254.5C306 260 320 271 334 275.5C348 280 362 278 375.8 274.3C389.7 270.7 403.3 265.3 417.2 259.2C431 253 445 246 459 236.2C473 226.3 487 213.7 501 227.2C515 240.7 529 280.3 542.8 302.8C556.7 325.3 570.3 330.7 584.2 320.7C598 310.7 612 285.3 626 277.2C640 269 654 278 668 274.5C682 271 696 255 709.8 249.7C723.7 244.3 737.3 249.7 751.2 270.3C765 291 779 327 793 326C807 325 821 287 835 260.8C849 234.7 863 220.3 876.8 214.2C890.7 208 904.3 210 918.2 206.5C932 203 946 194 953 189.5L960 185L960 166L953 171.5C946 177 932 188 918.2 190.8C904.3 193.7 890.7 188.3 876.8 191.8C863 195.3 849 207.7 835 234.7C821 261.7 807 303.3 793 304.3C779 305.3 765 265.7 751.2 244.8C737.3 224 723.7 222 709.8 230C696 238 682 256 668 261.5C654 267 640 260 626 267.3C612 274.7 598 296.3 584.2 302.7C570.3 309 556.7 300 542.8 276.5C529 253 515 215 501 203.2C487 191.3 473 205.7 459 213.8C445 222 431 224 417.2 229.5C403.3 235 389.7 244 375.8 249.3C362 254.7 348 256.3 334 252.7C320 249 306 240 292 237.3C278 234.7 264 238.3 250.2 236.5C236.3 234.7 222.7 227.3 208.8 241.7C195 256 181 292 167 282.2C153 272.3 139 216.7 125 192.5C111 168.3 97 175.7 83.2 191.8C69.3 208 55.7 233 41.8 233.8C28 234.7 14 211.3 7 199.7L0 188Z" fill="#cbd6d1"></path><path d="M0 228L7 242.3C14 256.7 28 285.3 41.8 288C55.7 290.7 69.3 267.3 83.2 252C97 236.7 111 229.3 125 251C139 272.7 153 323.3 167 332.3C181 341.3 195 308.7 208.8 289.7C222.7 270.7 236.3 265.3 250.2 264.5C264 263.7 278 267.3 292 275.5C306 283.7 320 296.3 334 300.8C348 305.3 362 301.7 375.8 294.5C389.7 287.3 403.3 276.7 417.2 271.3C431 266 445 266 459 257.8C473 249.7 487 233.3 501 244C515 254.7 529 292.3 542.8 314.8C556.7 337.3 570.3 344.7 584.2 336.7C598 328.7 612 305.3 626 298.2C640 291 654 300 668 296.3C682 292.7 696 276.3 709.8 270.8C723.7 265.3 737.3 270.7 751.2 290.5C765 310.3 779 344.7 793 343.8C807 343 821 307 835 280C849 253 863 235 876.8 229.7C890.7 224.3 904.3 231.7 918.2 232.5C932 233.3 946 227.7 953 224.8L960 222L960 183L953 187.5C946 192 932 201 918.2 204.5C904.3 208 890.7 206 876.8 212.2C863 218.3 849 232.7 835 258.8C821 285 807 323 793 324C779 325 765 289 751.2 268.3C737.3 247.7 723.7 242.3 709.8 247.7C696 253 682 269 668 272.5C654 276 640 267 626 275.2C612 283.3 598 308.7 584.2 318.7C570.3 328.7 556.7 323.3 542.8 300.8C529 278.3 515 238.7 501 225.2C487 211.7 473 224.3 459 234.2C445 244 431 251 417.2 257.2C403.3 263.3 389.7 268.7 375.8 272.3C362 276 348 278 334 273.5C320 269 306 258 292 252.5C278 247 264 247 250.2 248C236.3 249 222.7 251 208.8 269C195 287 181 321 167 309.3C153 297.7 139 240.3 125 216.2C111 192 97 201 83.2 219C69.3 237 55.7 264 41.8 261.2C28 258.3 14 225.7 7 209.3L0 193Z" fill="#c1cec7"></path><path d="M0 282L7 289.2C14 296.3 28 310.7 41.8 306.2C55.7 301.7 69.3 278.3 83.2 268.5C97 258.7 111 262.3 125 286.7C139 311 153 356 167 359.5C181 363 195 325 208.8 307C222.7 289 236.3 291 250.2 293.7C264 296.3 278 299.7 292 305.8C306 312 320 321 334 326.5C348 332 362 334 375.8 326C389.7 318 403.3 300 417.2 296.3C431 292.7 445 303.3 459 295.2C473 287 487 260 501 268.2C515 276.3 529 319.7 542.8 341.3C556.7 363 570.3 363 584.2 356.7C598 350.3 612 337.7 626 335C640 332.3 654 339.7 668 334.3C682 329 696 311 709.8 304.7C723.7 298.3 737.3 303.7 751.2 320.7C765 337.7 779 366.3 793 362.7C807 359 821 323 835 300.5C849 278 863 269 876.8 266.3C890.7 263.7 904.3 267.3 918.2 262.8C932 258.3 946 245.7 953 239.3L960 233L960 220L953 222.8C946 225.7 932 231.3 918.2 230.5C904.3 229.7 890.7 222.3 876.8 227.7C863 233 849 251 835 278C821 305 807 341 793 341.8C779 342.7 765 308.3 751.2 288.5C737.3 268.7 723.7 263.3 709.8 268.8C696 274.3 682 290.7 668 294.3C654 298 640 289 626 296.2C612 303.3 598 326.7 584.2 334.7C570.3 342.7 556.7 335.3 542.8 312.8C529 290.3 515 252.7 501 242C487 231.3 473 247.7 459 255.8C445 264 431 264 417.2 269.3C403.3 274.7 389.7 285.3 375.8 292.5C362 299.7 348 303.3 334 298.8C320 294.3 306 281.7 292 273.5C278 265.3 264 261.7 250.2 262.5C236.3 263.3 222.7 268.7 208.8 287.7C195 306.7 181 339.3 167 330.3C153 321.3 139 270.7 125 249C111 227.3 97 234.7 83.2 250C69.3 265.3 55.7 288.7 41.8 286C28 283.3 14 254.7 7 240.3L0 226Z" fill="#b7c6be"></path><path d="M0 298L7 308.8C14 319.7 28 341.3 41.8 339.5C55.7 337.7 69.3 312.3 83.2 298.8C97 285.3 111 283.7 125 308C139 332.3 153 382.7 167 389.8C181 397 195 361 208.8 339.3C222.7 317.7 236.3 310.3 250.2 312.2C264 314 278 325 292 334C306 343 320 350 334 357.2C348 364.3 362 371.7 375.8 362.7C389.7 353.7 403.3 328.3 417.2 321.2C431 314 445 325 459 317C473 309 487 282 501 292.8C515 303.7 529 352.3 542.8 374.8C556.7 397.3 570.3 393.7 584.2 384.7C598 375.7 612 361.3 626 361.3C640 361.3 654 375.7 668 371.2C682 366.7 696 343.3 709.8 335.2C723.7 327 737.3 334 751.2 349.2C765 364.3 779 387.7 793 382.3C807 377 821 343 835 322.3C849 301.7 863 294.3 876.8 293.3C890.7 292.3 904.3 297.7 918.2 295C932 292.3 946 281.7 953 276.3L960 271L960 231L953 237.3C946 243.7 932 256.3 918.2 260.8C904.3 265.3 890.7 261.7 876.8 264.3C863 267 849 276 835 298.5C821 321 807 357 793 360.7C779 364.3 765 335.7 751.2 318.7C737.3 301.7 723.7 296.3 709.8 302.7C696 309 682 327 668 332.3C654 337.7 640 330.3 626 333C612 335.7 598 348.3 584.2 354.7C570.3 361 556.7 361 542.8 339.3C529 317.7 515 274.3 501 266.2C487 258 473 285 459 293.2C445 301.3 431 290.7 417.2 294.3C403.3 298 389.7 316 375.8 324C362 332 348 330 334 324.5C320 319 306 310 292 303.8C278 297.7 264 294.3 250.2 291.7C236.3 289 222.7 287 208.8 305C195 323 181 361 167 357.5C153 354 139 309 125 284.7C111 260.3 97 256.7 83.2 266.5C69.3 276.3 55.7 299.7 41.8 304.2C28 308.7 14 294.3 7 287.2L0 280Z" fill="#adbeb5"></path><path d="M0 460L7 460C14 460 28 460 41.8 459.2C55.7 458.3 69.3 456.7 83.2 450.3C97 444 111 433 125 439.2C139 445.3 153 468.7 167 474.2C181 479.7 195 467.3 208.8 448.5C222.7 429.7 236.3 404.3 250.2 404.3C264 404.3 278 429.7 292 436C306 442.3 320 429.7 334 427.8C348 426 362 435 375.8 444C389.7 453 403.3 462 417.2 458.3C431 454.7 445 438.3 459 438.3C473 438.3 487 454.7 501 460.2C515 465.7 529 460.3 542.8 457.7C556.7 455 570.3 455 584.2 451.3C598 447.7 612 440.3 626 443.8C640 447.3 654 461.7 668 462.5C682 463.3 696 450.7 709.8 438.2C723.7 425.7 737.3 413.3 751.2 421.5C765 429.7 779 458.3 793 466.3C807 474.3 821 461.7 835 453.5C849 445.3 863 441.7 876.8 438.2C890.7 434.7 904.3 431.3 918.2 429.7C932 428 946 428 953 428L960 428L960 269L953 274.3C946 279.7 932 290.3 918.2 293C904.3 295.7 890.7 290.3 876.8 291.3C863 292.3 849 299.7 835 320.3C821 341 807 375 793 380.3C779 385.7 765 362.3 751.2 347.2C737.3 332 723.7 325 709.8 333.2C696 341.3 682 364.7 668 369.2C654 373.7 640 359.3 626 359.3C612 359.3 598 373.7 584.2 382.7C570.3 391.7 556.7 395.3 542.8 372.8C529 350.3 515 301.7 501 290.8C487 280 473 307 459 315C445 323 431 312 417.2 319.2C403.3 326.3 389.7 351.7 375.8 360.7C362 369.7 348 362.3 334 355.2C320 348 306 341 292 332C278 323 264 312 250.2 310.2C236.3 308.3 222.7 315.7 208.8 337.3C195 359 181 395 167 387.8C153 380.7 139 330.3 125 306C111 281.7 97 283.3 83.2 296.8C69.3 310.3 55.7 335.7 41.8 337.5C28 339.3 14 317.7 7 306.8L0 296Z" fill="#a3b6ad"></path><path d="M0 509L7 506.2C14 503.3 28 497.7 41.8 495.8C55.7 494 69.3 496 83.2 495.2C97 494.3 111 490.7 125 494.2C139 497.7 153 508.3 167 510.2C181 512 195 505 208.8 497C222.7 489 236.3 480 250.2 480.8C264 481.7 278 492.3 292 494.2C306 496 320 489 334 490.8C348 492.7 362 503.3 375.8 506C389.7 508.7 403.3 503.3 417.2 499.7C431 496 445 494 459 494.8C473 495.7 487 499.3 501 502.2C515 505 529 507 542.8 505.2C556.7 503.3 570.3 497.7 584.2 497.7C598 497.7 612 503.3 626 506.2C640 509 654 509 668 509C682 509 696 509 709.8 507.2C723.7 505.3 737.3 501.7 751.2 504.3C765 507 779 516 793 513.3C807 510.7 821 496.3 835 495.3C849 494.3 863 506.7 876.8 505.7C890.7 504.7 904.3 490.3 918.2 485.8C932 481.3 946 486.7 953 489.3L960 492L960 426L953 426C946 426 932 426 918.2 427.7C904.3 429.3 890.7 432.7 876.8 436.2C863 439.7 849 443.3 835 451.5C821 459.7 807 472.3 793 464.3C779 456.3 765 427.7 751.2 419.5C737.3 411.3 723.7 423.7 709.8 436.2C696 448.7 682 461.3 668 460.5C654 459.7 640 445.3 626 441.8C612 438.3 598 445.7 584.2 449.3C570.3 453 556.7 453 542.8 455.7C529 458.3 515 463.7 501 458.2C487 452.7 473 436.3 459 436.3C445 436.3 431 452.7 417.2 456.3C403.3 460 389.7 451 375.8 442C362 433 348 424 334 425.8C320 427.7 306 440.3 292 434C278 427.7 264 402.3 250.2 402.3C236.3 402.3 222.7 427.7 208.8 446.5C195 465.3 181 477.7 167 472.2C153 466.7 139 443.3 125 437.2C111 431 97 442 83.2 448.3C69.3 454.7 55.7 456.3 41.8 457.2C28 458 14 458 7 458L0 458Z" fill="#99aea4"></path><path d="M0 541L7 541C14 541 28 541 41.8 541C55.7 541 69.3 541 83.2 541C97 541 111 541 125 541C139 541 153 541 167 541C181 541 195 541 208.8 541C222.7 541 236.3 541 250.2 541C264 541 278 541 292 541C306 541 320 541 334 541C348 541 362 541 375.8 541C389.7 541 403.3 541 417.2 541C431 541 445 541 459 541C473 541 487 541 501 541C515 541 529 541 542.8 541C556.7 541 570.3 541 584.2 541C598 541 612 541 626 541C640 541 654 541 668 541C682 541 696 541 709.8 541C723.7 541 737.3 541 751.2 541C765 541 779 541 793 541C807 541 821 541 835 541C849 541 863 541 876.8 541C890.7 541 904.3 541 918.2 541C932 541 946 541 953 541L960 541L960 490L953 487.3C946 484.7 932 479.3 918.2 483.8C904.3 488.3 890.7 502.7 876.8 503.7C863 504.7 849 492.3 835 493.3C821 494.3 807 508.7 793 511.3C779 514 765 505 751.2 502.3C737.3 499.7 723.7 503.3 709.8 505.2C696 507 682 507 668 507C654 507 640 507 626 504.2C612 501.3 598 495.7 584.2 495.7C570.3 495.7 556.7 501.3 542.8 503.2C529 505 515 503 501 500.2C487 497.3 473 493.7 459 492.8C445 492 431 494 417.2 497.7C403.3 501.3 389.7 506.7 375.8 504C362 501.3 348 490.7 334 488.8C320 487 306 494 292 492.2C278 490.3 264 479.7 250.2 478.8C236.3 478 222.7 487 208.8 495C195 503 181 510 167 508.2C153 506.3 139 495.7 125 492.2C111 488.7 97 492.3 83.2 493.2C69.3 494 55.7 492 41.8 493.8C28 495.7 14 501.3 7 504.2L0 507Z" fill="#8fa69b"></path></svg>